<?xml version="1.0" encoding="utf-8"?>
<!-- Generator: Adobe Illustrator 16.0.1, SVG Export Plug-In . SVG Version: 6.00 Build 0)  -->
<!DOCTYPE svg PUBLIC "-//W3C//DTD SVG 1.1//EN" "http://www.w3.org/Graphics/SVG/1.1/DTD/svg11.dtd">
<svg version="1.1" id="Layer_1" xmlns="http://www.w3.org/2000/svg" xmlns:xlink="http://www.w3.org/1999/xlink" x="0px" y="0px"
	 width="84px" height="63px" viewBox="0 0 84 63" enable-background="new 0 0 84 63" xml:space="preserve">
<path d="M16.7422,15.502L14,12.7578h-0.6426l-0.5508-0.5508C13.54,11.3379,14,10.229,14,9c0-2.7607-2.2383-5-5-5
	C6.2378,4,4,6.2393,4,9c0,2.7617,2.2378,5,5,5c1.229,0,2.3379-0.459,3.208-1.1934l0.5518,0.5508V14l2.7422,2.7422
	c0.3418,0.3438,0.8965,0.3438,1.2402,0.002C17.0859,16.4004,17.0859,15.8457,16.7422,15.502z M9,12.25
	c-1.7949,0-3.25-1.4551-3.25-3.25S7.2051,5.75,9,5.75c1.7969,0,3.25,1.4551,3.25,3.25S10.7969,12.25,9,12.25z"/>
<g>
	<path d="M60.25,52H59v-2.25c0-0.4141-0.3359-0.75-0.75-0.75h-5.9395l-1.7793-1.7788C50.3965,47.084,50.209,47,50,47h-4.25
		C45.3359,47,45,47.3359,45,47.75V49v10.25c0,0.4141,0.3359,0.75,0.75,0.75H48h6.5h3.75h0.25c0.4141,0,0.75-0.3359,0.75-0.75
		l1.75-6.5C61,52.3359,60.6641,52,60.25,52z"/>
</g>
<path fill="#FFFFFF" d="M47.25,58l1-5.75c0-0.1382,0.1113-0.25,0.25-0.25H59v-1H48.5c-0.6895,0-1.25,0.561-1.25,1.25l-1,5.75"/>
<polygon points="58,5.4141 56.5859,4 52,8.5859 47.4141,4 46,5.4141 50.5859,10 46,14.5859 47.4141,16 52,11.4141 56.5859,16 
	58,14.5859 53.4141,10 "/>
<rect x="42" fill="#4387FD" fill-opacity="0" width="21" height="21"/>
<polygon enable-background="new    " points="77.9141,7.5 76.5,6.0859 73.5,9.0859 70.5,6.0859 69.085,7.5 72.085,10.5 69.085,13.5 
	70.5,14.9141 73.5,11.9141 76.5,14.9141 77.9141,13.5 74.9141,10.5 "/>
<path d="M60.8633,37.4961l-7-12C53.6855,25.189,53.3555,25,53,25c-0.3545,0-0.6846,0.189-0.8623,0.4961l-7,12
	c-0.1826,0.3105-0.1826,0.6914-0.0049,1.002C45.3115,38.8086,45.6436,39,46,39h14c0.3574,0,0.6895-0.1914,0.8672-0.502
	S61.0449,37.8066,60.8633,37.4961z"/>
<circle fill="#FFFFFF" cx="52.998" cy="35.999" r="1.0508"/>
<polygon fill="#FFFFFF" points="52,29 54,29 53.6504,34 52.3506,34 "/>
<path fill="#4D90FE" d="M26,52c0,3.3145,2.6875,6,6,6c3.3145,0,6-2.6855,6-6c0-3.313-2.6855-6-6-6C28.6875,46,26,48.687,26,52z"/>
<rect x="31" y="51" fill="#FFFFFF" width="2" height="4"/>
<rect x="31" y="48" fill="#FFFFFF" width="2" height="2"/>
<path d="M15.5,25h-10C4.6719,25,4,25.6719,4,26.5v10C4,37.3281,4.6719,38,5.5,38h10c0.8281,0,1.5-0.6719,1.5-1.5v-10
	C17,25.6719,16.3281,25,15.5,25z"/>
<path fill="#FFFFFF" d="M11,35.5c0,0.2754-0.2251,0.5-0.5,0.5h-1C9.2241,36,9,35.7754,9,35.5v-1C9,34.2246,9.2241,34,9.5,34h1
	c0.2749,0,0.5,0.2246,0.5,0.5V35.5z M14,30c0,0.5532-0.4473,1-1,1h-2v2H9v-2c0-0.5312,0.4839-1,1-1h2v-2h-2v1H8v-1
	c0-0.5532,0.4468-1,1-1h4c0.5527,0,1,0.4468,1,1V30z"/>
<path fill="#4D90FE" d="M36.5,25h-10c-0.8281,0-1.5,0.6719-1.5,1.5v10c0,0.8281,0.6719,1.5,1.5,1.5h10c0.8281,0,1.5-0.6719,1.5-1.5
	v-10C38,25.6719,37.3281,25,36.5,25z"/>
<path fill="#FFFFFF" d="M32,35.5c0,0.2754-0.2251,0.5-0.5,0.5h-1c-0.2759,0-0.5-0.2246-0.5-0.5v-1c0-0.2754,0.2241-0.5,0.5-0.5h1
	c0.2749,0,0.5,0.2246,0.5,0.5V35.5z M35,30c0,0.5532-0.4473,1-1,1h-2v2h-2v-2c0-0.5312,0.4839-1,1-1h2v-2h-2v1h-2v-1
	c0-0.5532,0.4468-1,1-1h4c0.5527,0,1,0.4468,1,1V30z"/>
<path fill="#FFFFFF" d="M37.7422,15.502L35,12.7578h-0.6426l-0.5508-0.5508C34.54,11.3379,35,10.229,35,9c0-2.7607-2.2383-5-5-5
	c-2.7622,0-5,2.2393-5,5c0,2.7617,2.2378,5,5,5c1.229,0,2.3379-0.459,3.208-1.1934l0.5518,0.5508V14l2.7422,2.7422
	c0.3418,0.3438,0.8965,0.3438,1.2402,0.002C38.0859,16.4004,38.0859,15.8457,37.7422,15.502z M30,12.25
	c-1.7949,0-3.25-1.4551-3.25-3.25S28.2051,5.75,30,5.75c1.7969,0,3.25,1.4551,3.25,3.25S31.7969,12.25,30,12.25z"/>
<g>
	<polygon points="74.1152,48.4683 67,55.5859 67,59 70.416,59 77.5312,51.8838 	"/>
	<path d="M79.585,49.8281c0.5537-0.5532,0.5518-1.4473-0.001-2.002l-1.4102-1.4102c-0.5508-0.5532-1.4492-0.5552-2.0049-0.0039
		l-1.1924,1.1948l3.416,3.4141L79.585,49.8281z"/>
</g>
<path d="M5,52c0,3.3145,2.6875,6,6,6c3.3145,0,6-2.6855,6-6c0-3.313-2.6855-6-6-6C7.6875,46,5,48.687,5,52z"/>
<rect x="10" y="51" fill="#FFFFFF" width="2" height="4"/>
<rect x="10" y="48" fill="#FFFFFF" width="2" height="2"/>
<path fill="#DD4B39" d="M81.8633,37.4961l-7-12C74.6855,25.189,74.3555,25,74,25c-0.3545,0-0.6846,0.189-0.8623,0.4961l-7,12
	c-0.1826,0.3105-0.1826,0.6914-0.0049,1.002C66.3115,38.8086,66.6436,39,67,39h14c0.3574,0,0.6895-0.1914,0.8672-0.502
	S82.0449,37.8066,81.8633,37.4961z"/>
<circle fill="#FFFFFF" cx="73.998" cy="35.999" r="1.0508"/>
<polygon fill="#FFFFFF" points="73,29 75,29 74.6504,34 73.3506,34 "/>
</svg>
