<?xml version="1.0" encoding="utf-8"?>
<!-- Generator: Adobe Illustrator 18.0.0, SVG Export Plug-In . SVG Version: 6.00 Build 0)  -->
<!DOCTYPE svg PUBLIC "-//W3C//DTD SVG 1.1//EN" "http://www.w3.org/Graphics/SVG/1.1/DTD/svg11.dtd">
<svg version="1.1" id="Layer_1" xmlns="http://www.w3.org/2000/svg" xmlns:xlink="http://www.w3.org/1999/xlink" x="0px" y="0px"
	 viewBox="0 0 144.9 161.6" enable-background="new 0 0 144.9 161.6" xml:space="preserve">
<g>
	<polyline fill="#BDBDBD" points="144.9,161.6 0,161.6 28.3,99 116.6,99 144.9,161.6 	"/>
	<path fill="#FFFFFF" d="M141.8,159.6H3.1l26.5-59h85.7L141.8,159.6 M17.6,150.2h109.6l-18-40.2H35.7L17.6,150.2"/>
	<polyline fill="#BDBDBD" points="133.2,154.2 11.7,154.2 32.6,103.3 112.2,103.3 133.2,154.2 	"/>
	<polyline fill="#9CCC65" points="133.2,154.2 120,122 90.8,122 85.5,136.6 46.5,154.2 133.2,154.2 	"/>
	<polygon fill="#57A0D7" points="112.2,103.3 96,103.3 90.8,122 119.7,121.4 	"/>
	<polyline fill="#9CCC65" points="11.7,154.2 48.1,154.2 75.1,140.5 24.9,122 11.7,154.2 	"/>
	<path fill="#EF4137" d="M114.8,50c0-23.4-19-42.3-42.3-42.3c-23.4,0-42.3,19-42.3,42.3c0,8.2,2.3,15.8,6.3,22.3h-0.1l36.1,54.5
		l36.1-54.5h-0.1C112.4,65.8,114.8,58.2,114.8,50"/>
	<path fill="#B72327" d="M72.4,7.7c-23.4,0-42.3,19-42.3,42.3c0,1.9,0.1,3.8,0.4,5.7l39.1,7.9l2.8-1.5l0,2l36.4,7.4
		c3.7-6.3,5.9-13.7,5.9-21.5C114.8,26.6,95.8,7.7,72.4,7.7z"/>
	<polygon fill="#B72327" points="66.4,75.2 72.4,71.5 72.4,56.3 78.4,75.2 72.4,75.2 	"/>
	<path fill="#FAA726" d="M118.2,41.9C114.3,20.2,95.3,3.7,72.4,3.7c-22.9,0-41.9,16.5-45.8,38.3L21,48.8c0,0,17.1,4.6,51.4,4.6
		c34.3,0,51.4-4.6,51.4-4.6L118.2,41.9z"/>
	<path fill="#F78C20" d="M90.8,7.4C85.1,5,79,3.7,72.4,3.7c-1.6,0-3.2,0.1-4.8,0.2l-3.4,20.2l17.1,5.1L90.8,7.4z"/>
	<path fill="#FAA726" d="M81.3,29.1l3.4-27.6c-3.9-1-8-1.5-12.3-1.5c-4.2,0-8.3,0.5-12.3,1.5l3.4,27.6"/>
	<path fill="#F78C20" d="M118.2,41.9c-0.5-2.9-1.3-5.8-2.4-8.5c-6.3,4.1-17.2,9.3-27.7,11.5l0,0.1C102.1,44.4,112,43,118.2,41.9
		L118.2,41.9z"/>
	<polyline fill="#FFFFFF" points="87,137.9 88.1,137.3 88.4,136.3 92.2,124.2 123.1,124.2 121.1,119.3 93.7,119.3 99.1,102.1 
		94.5,102.1 83.5,133.3 74.8,137.2 23.6,119.6 21.5,124.8 67.3,140.6 35.6,154.8 35.9,155.4 52.8,155.4 87,137.9 	"/>
	<polyline fill="#D1D2D3" points="134.9,139.6 144.9,161.6 135,139.6 134.9,139.6 	"/>
	<polyline fill="#A2A4A4" points="132.6,139.1 141.8,159.6 79,159.6 79.4,161.6 144.9,161.6 134.9,139.6 132.6,139.1 	"/>
	<polyline fill="#D1D2D3" points="126.4,137.8 127.2,139.7 133.2,154.2 133.2,154.2 77.9,154.2 79,159.6 141.8,159.6 132.6,139.1 
		126.4,137.8 	"/>
	<path fill="#A2A4A4" d="M133.2,154.2H77.9v0L133.2,154.2 M126.4,137.8l0.8,1.9L126.4,137.8 M72.3,126.8l2.1,10.3l0.4,0.1l8.7-3.9
		l1.4-4L72.3,126.8"/>
	<polyline fill="#87B25E" points="90.2,130.4 88.4,136.3 88.1,137.3 87,137.9 75.7,143.7 77.9,154.2 133.2,154.2 127.2,139.7 
		126.4,137.8 90.2,130.4 	"/>
	<polyline fill="#D1D2D3" points="84.9,129.4 83.5,133.3 74.8,137.2 74.4,137.1 75.7,143.7 87,137.9 88.1,137.3 88.4,136.3 
		90.2,130.4 84.9,129.4 	"/>
	<path fill="#B72327" d="M72.4,90.9c-0.7,0-1.3-0.6-1.3-1.3c0-0.7,0.6-1.3,1.3-1.3c4,0,7.6-2.2,9.5-5.7c0.3-0.6,1.1-0.8,1.7-0.5
		c0.6,0.3,0.8,1.1,0.5,1.7C81.8,88.2,77.3,90.9,72.4,90.9z"/>
</g>
</svg>
