<?xml version="1.0" encoding="utf-8"?>
<!-- Generator: Adobe Illustrator 18.0.0, SVG Export Plug-In . SVG Version: 6.00 Build 0)  -->
<!DOCTYPE svg PUBLIC "-//W3C//DTD SVG 1.1//EN" "http://www.w3.org/Graphics/SVG/1.1/DTD/svg11.dtd">
<svg version="1.1" id="Layer_1" xmlns="http://www.w3.org/2000/svg" xmlns:xlink="http://www.w3.org/1999/xlink" x="0px" y="0px"
	 viewBox="0 0 138.4 51.1" enable-background="new 0 0 138.4 51.1" xml:space="preserve">
<g>
	<polyline fill="#BDBDBD" points="45.8,51.1 0,51.1 8.9,31.3 36.8,31.3 45.8,51.1 	"/>
	<path fill="#FFFFFF" d="M44.8,50.4H1l8.4-18.7h27.1L44.8,50.4 M5.6,47.5h34.6l-5.7-12.7H11.3L5.6,47.5"/>
	<polyline fill="#BDBDBD" points="42.1,48.7 3.7,48.7 10.3,32.6 35.5,32.6 42.1,48.7 	"/>
	<polyline fill="#9CCC65" points="42.1,48.7 37.9,38.6 28.7,38.6 27,43.2 14.7,48.7 42.1,48.7 	"/>
	<polygon fill="#42A5F5" points="35.5,32.6 30.3,32.6 28.7,38.6 37.8,38.4 	"/>
	<polyline fill="#9CCC65" points="3.7,48.7 15.2,48.7 23.7,44.4 7.9,38.6 3.7,48.7 	"/>
	<path fill="#EE4036" d="M36.3,15.8c0-7.4-6-13.4-13.4-13.4S9.5,8.4,9.5,15.8c0,2.6,0.7,5,2,7h0l11.4,17.2l11.4-17.2h0
		C35.5,20.8,36.3,18.4,36.3,15.8"/>
	<path fill="#B72126" d="M22.9,2.4c-7.4,0-13.4,6-13.4,13.4c0,0.6,0,1.2,0.1,1.8L22,20.1l0.9-0.5l0,0.6l11.5,2.3
		c1.2-2,1.9-4.3,1.9-6.8C36.3,8.4,30.3,2.4,22.9,2.4z"/>
	<polygon fill="#B72126" points="21,23.8 22.9,22.6 22.9,17.8 24.8,23.8 22.9,23.8 	"/>
	<path fill="#FAA727" d="M37.4,13.3C36.1,6.4,30.1,1.2,22.9,1.2c-7.2,0-13.2,5.2-14.5,12.1l-1.8,2.2c0,0,5.4,1.5,16.2,1.5
		c10.8,0,16.2-1.5,16.2-1.5L37.4,13.3z"/>
	<path fill="#F78C1F" d="M28.7,2.3c-1.8-0.8-3.7-1.2-5.8-1.2c-0.5,0-1,0-1.5,0.1l-1.1,6.4l5.4,1.6L28.7,2.3z"/>
	<path fill="#FAA727" d="M25.7,9.2l1.1-8.7C25.5,0.2,24.2,0,22.9,0c-1.3,0-2.6,0.2-3.9,0.5l1.1,8.7"/>
	<path fill="#F78C1F" d="M37.4,13.3c-0.2-0.9-0.4-1.8-0.8-2.7c-2,1.3-5.4,2.9-8.7,3.6l0,0C32.3,14,35.4,13.6,37.4,13.3L37.4,13.3z"
		/>
	<polyline fill="#FFFFFF" points="27.5,43.6 27.8,43.4 27.9,43.1 29.1,39.2 38.9,39.2 38.3,37.7 29.6,37.7 31.3,32.3 29.9,32.3 
		26.4,42.1 23.6,43.4 7.5,37.8 6.8,39.4 21.3,44.4 11.2,48.9 11.3,49.1 16.7,49.1 27.5,43.6 	"/>
	<polyline fill="#D0D2D3" points="42.6,44.1 45.8,51.1 42.7,44.1 42.6,44.1 	"/>
	<polyline fill="#9A9C9C" points="41.9,44 44.8,50.4 25,50.4 25.1,51.1 45.8,51.1 42.6,44.1 41.9,44 	"/>
	<polyline fill="#D0D2D3" points="40,43.6 42.1,48.7 42.1,48.7 24.6,48.7 25,50.4 44.8,50.4 41.9,44 40,43.6 	"/>
	<polyline fill="#9A9C9C" points="22.8,40.1 23.5,43.3 23.6,43.4 26.4,42.1 26.8,40.9 22.8,40.1 	"/>
	<polyline fill="#7FA854" points="28.5,41.2 27.9,43.1 27.8,43.4 27.5,43.6 23.9,45.4 24.6,48.7 42.1,48.7 40,43.6 28.5,41.2 	"/>
	<polyline fill="#D0D2D3" points="26.8,40.9 26.4,42.1 23.6,43.4 23.5,43.3 23.9,45.4 27.5,43.6 27.8,43.4 27.9,43.1 28.5,41.2 
		26.8,40.9 	"/>
	<path fill="#B72126" d="M22.9,28.7c-0.2,0-0.4-0.2-0.4-0.4c0-0.2,0.2-0.4,0.4-0.4c1.3,0,2.4-0.7,3-1.8c0.1-0.2,0.3-0.3,0.5-0.2
		c0.2,0.1,0.3,0.3,0.2,0.5C25.9,27.9,24.4,28.7,22.9,28.7z"/>
	<path fill="#42A5F5" d="M53.7,35.2c0-1.1,0.8-1.9,1.9-1.9h5.2c2,0,3.6,0.5,4.6,1.5c0.8,0.8,1.2,1.8,1.2,3v0.1c0,2-1,3.1-2.3,3.8
		c2,0.8,3.3,1.9,3.3,4.3V46c0,3.2-2.6,4.8-6.5,4.8h-5.4c-1.1,0-1.9-0.8-1.9-1.9V35.2z M60,40.4c1.7,0,2.8-0.5,2.8-1.8v-0.1
		c0-1.1-0.9-1.8-2.5-1.8h-2.8v3.7H60z M61,47.4c1.7,0,2.7-0.6,2.7-1.9v-0.1c0-1.2-0.9-1.9-2.8-1.9h-3.5v3.8H61z"/>
	<path fill="#42A5F5" d="M81.7,49c0,1-0.8,1.9-1.9,1.9c-1,0-1.9-0.8-1.9-1.9v-0.2C77,50,75.9,51,74,51c-2.9,0-4.5-1.9-4.5-5v-6.9
		c0-1,0.8-1.9,1.9-1.9c1,0,1.9,0.8,1.9,1.9v5.7c0,1.8,0.8,2.7,2.3,2.7s2.4-0.9,2.4-2.7v-5.7c0-1,0.8-1.9,1.9-1.9
		c1,0,1.9,0.8,1.9,1.9V49z"/>
	<path fill="#42A5F5" d="M91.8,34.3c0-1,0.8-1.9,1.9-1.9s1.9,0.8,1.9,1.9V49c0,1-0.8,1.9-1.9,1.9s-1.9-0.8-1.9-1.9V34.3z"/>
	<path fill="#42A5F5" d="M112.5,49c0,1-0.8,1.9-1.9,1.9c-1,0-1.9-0.8-1.9-1.9v-0.2c-0.9,1.2-2.2,2.2-4.2,2.2c-3.1,0-6.1-2.4-6.1-6.9
		v-0.1c0-4.5,2.9-6.9,6.1-6.9c2,0,3.3,0.9,4.2,2v-4.8c0-1,0.8-1.9,1.9-1.9c1,0,1.9,0.8,1.9,1.9V49z M102.2,44.1L102.2,44.1
		c0,2.3,1.5,3.7,3.3,3.7c1.8,0,3.2-1.5,3.2-3.7v-0.1c0-2.2-1.5-3.7-3.2-3.7C103.7,40.4,102.2,41.8,102.2,44.1z"/>
	<path fill="#42A5F5" d="M121.7,51.1c-4,0-7-2.8-7-6.9v-0.1c0-3.8,2.7-7,6.6-7c4.5,0,6.4,3.7,6.4,6.4c0,1.1-0.8,1.8-1.8,1.8h-7.5
		c0.4,1.7,1.6,2.6,3.3,2.6c1,0,1.9-0.3,2.7-0.9c0.3-0.2,0.5-0.3,0.9-0.3c0.8,0,1.5,0.6,1.5,1.5c0,0.5-0.2,0.9-0.5,1.1
		C125.2,50.5,123.6,51.1,121.7,51.1z M124.1,43c-0.2-1.7-1.2-2.8-2.8-2.8c-1.6,0-2.6,1.1-2.9,2.8H124.1z"/>
	<path fill="#42A5F5" d="M130.2,39.1c0-1,0.8-1.9,1.9-1.9c1,0,1.9,0.8,1.9,1.9v0.6c0.5-1.3,1.4-2.5,2.6-2.5c1.2,0,1.8,0.8,1.8,1.8
		c0,1-0.6,1.6-1.4,1.8c-1.9,0.4-3,1.9-3,4.6V49c0,1-0.8,1.9-1.9,1.9c-1,0-1.9-0.8-1.9-1.9V39.1z"/>
	<path fill="#42A5F5" d="M53.7,9.4c0-1.1,0.8-1.9,1.9-1.9H56c0.8,0,1.4,0.4,1.7,1l4.9,7.6l4.9-7.6c0.4-0.6,0.9-1,1.7-1h0.4
		c1.1,0,1.9,0.8,1.9,1.9v13.9c0,1.1-0.8,1.9-1.9,1.9c-1,0-1.9-0.9-1.9-1.9v-8.7l-3.6,5.2c-0.4,0.6-0.9,1-1.6,1c-0.7,0-1.2-0.4-1.6-1
		l-3.6-5.1v8.7c0,1-0.8,1.9-1.9,1.9c-1,0-1.9-0.8-1.9-1.9V9.4z"/>
	<path fill="#42A5F5" d="M84.9,13.4c0-1,0.8-1.9,1.9-1.9c1,0,1.9,0.8,1.9,1.9v9.9c0,1-0.8,1.9-1.9,1.9c-1,0-1.9-0.8-1.9-1.9v-0.2
		c-0.9,1.2-2.2,2.2-4.2,2.2c-3.1,0-6.1-2.4-6.1-6.9v-0.1c0-4.5,2.9-6.9,6.1-6.9C82.7,11.4,84,12.4,84.9,13.4L84.9,13.4z M78.4,18.4
		L78.4,18.4c0,2.3,1.5,3.7,3.3,3.7c1.8,0,3.2-1.5,3.2-3.7v-0.1c0-2.2-1.5-3.7-3.2-3.7C79.9,14.7,78.4,16.1,78.4,18.4z"/>
	<path fill="#42A5F5" d="M91.8,13.4c0-1,0.8-1.9,1.9-1.9c1,0,1.9,0.8,1.9,1.9v0.2c0.9-1.2,2.2-2.2,4.2-2.2c3.1,0,6.1,2.4,6.1,6.9
		v0.1c0,4.5-2.9,6.9-6.1,6.9c-2,0-3.3-0.9-4.2-2v4c0,1-0.8,1.9-1.9,1.9c-1,0-1.9-0.8-1.9-1.9V13.4z M102.1,18.4L102.1,18.4
		c0-2.3-1.5-3.7-3.3-3.7c-1.8,0-3.2,1.5-3.2,3.7v0.1c0,2.2,1.5,3.7,3.2,3.7C100.6,22.1,102.1,20.7,102.1,18.4z"/>
	<path fill="#42A5F5" d="M108.3,23.8c-0.4-0.2-0.7-0.7-0.7-1.3c0-0.8,0.6-1.5,1.5-1.5c0.3,0,0.6,0.1,0.7,0.2
		c1.3,0.8,2.5,1.2,3.6,1.2c1.1,0,1.6-0.4,1.6-1v-0.1c0-0.8-1.3-1.1-2.8-1.5c-1.9-0.5-4-1.4-4-4v-0.1c0-2.7,2.2-4.2,4.9-4.2
		c1.4,0,2.8,0.4,4.1,1c0.5,0.3,0.9,0.8,0.9,1.4c0,0.8-0.7,1.5-1.5,1.5c-0.3,0-0.4,0-0.7-0.2c-1.1-0.5-2.1-0.8-2.9-0.8
		c-0.9,0-1.4,0.4-1.4,0.9v0.1c0,0.7,1.3,1.1,2.7,1.6c1.9,0.6,4,1.5,4,4v0c0,3-2.2,4.3-5.1,4.3C111.7,25.3,109.9,24.8,108.3,23.8z"/>
	<path fill="#42A5F5" d="M86.6,37.2c-1,0-1.9,0.8-1.9,1.9V49c0,1,0.8,1.9,1.9,1.9s1.9-0.8,1.9-1.9v-9.9
		C88.5,38.1,87.7,37.2,86.6,37.2z M86.7,36.4c1.1,0,2-0.9,2-2c0-1.1-0.9-2-2-2c-1.1,0-2,0.9-2,2C84.7,35.5,85.6,36.4,86.7,36.4z"/>
</g>
</svg>
